<mxfile host="Electron" agent="Mozilla/5.0 (Windows NT 10.0; Win64; x64) AppleWebKit/537.36 (KHTML, like Gecko) draw.io/28.1.2 Chrome/138.0.7204.243 Electron/37.4.0 Safari/537.36" version="28.1.2">
  <diagram name="Page-1" id="k7Ozhvji2-GUL1SrvtUm">
    <mxGraphModel dx="1860" dy="1222" grid="1" gridSize="10" guides="1" tooltips="1" connect="1" arrows="1" fold="1" page="1" pageScale="1" pageWidth="1920" pageHeight="1200" math="0" shadow="0">
      <root>
        <mxCell id="0" />
        <mxCell id="1" parent="0" />
        <mxCell id="Z6U1djoNNcDDPm0babk--5" value="Customer Information" style="text;html=1;align=center;verticalAlign=middle;whiteSpace=wrap;rounded=0;fontStyle=0;fontSize=16;" parent="1" vertex="1">
          <mxGeometry x="630" y="534" width="220" height="30" as="geometry" />
        </mxCell>
        <mxCell id="Z6U1djoNNcDDPm0babk--6" value="&lt;font style=&quot;font-size: 20px;&quot;&gt;crm_cust_info&lt;/font&gt;" style="swimlane;fontStyle=0;childLayout=stackLayout;horizontal=1;startSize=26;fillColor=#dae8fc;horizontalStack=0;resizeParent=1;resizeParentMax=0;resizeLast=0;collapsible=1;marginBottom=0;html=1;rounded=1;strokeColor=#6c8ebf;" parent="1" vertex="1">
          <mxGeometry x="650" y="571" width="180" height="134" as="geometry" />
        </mxCell>
        <mxCell id="Z6U1djoNNcDDPm0babk--7" value="cst_id" style="text;strokeColor=none;fillColor=none;align=left;verticalAlign=top;spacingLeft=4;spacingRight=4;overflow=hidden;rotatable=0;points=[[0,0.5],[1,0.5]];portConstraint=eastwest;whiteSpace=wrap;html=1;fontSize=20;" parent="Z6U1djoNNcDDPm0babk--6" vertex="1">
          <mxGeometry y="26" width="180" height="74" as="geometry" />
        </mxCell>
        <mxCell id="HgyJIwbSkLL7c-inZIB4-1" value="cst_key" style="text;strokeColor=none;fillColor=none;align=left;verticalAlign=top;spacingLeft=4;spacingRight=4;overflow=hidden;rotatable=0;points=[[0,0.5],[1,0.5]];portConstraint=eastwest;whiteSpace=wrap;html=1;fontSize=20;" vertex="1" parent="Z6U1djoNNcDDPm0babk--6">
          <mxGeometry y="100" width="180" height="34" as="geometry" />
        </mxCell>
        <mxCell id="Z6U1djoNNcDDPm0babk--10" value="Current &amp;amp; History Product Information" style="text;html=1;align=center;verticalAlign=middle;whiteSpace=wrap;rounded=0;fontStyle=0;fontSize=16;" parent="1" vertex="1">
          <mxGeometry x="600" y="330" width="280" height="10" as="geometry" />
        </mxCell>
        <mxCell id="Z6U1djoNNcDDPm0babk--11" value="&lt;font style=&quot;font-size: 20px;&quot;&gt;crm_prd_info&lt;/font&gt;" style="swimlane;fontStyle=0;childLayout=stackLayout;horizontal=1;startSize=26;fillColor=#dae8fc;horizontalStack=0;resizeParent=1;resizeParentMax=0;resizeLast=0;collapsible=1;marginBottom=0;html=1;rounded=1;strokeColor=#6c8ebf;" parent="1" vertex="1">
          <mxGeometry x="650" y="360" width="180" height="60" as="geometry" />
        </mxCell>
        <mxCell id="Z6U1djoNNcDDPm0babk--12" value="prd_key" style="text;strokeColor=none;fillColor=none;align=left;verticalAlign=top;spacingLeft=4;spacingRight=4;overflow=hidden;rotatable=0;points=[[0,0.5],[1,0.5]];portConstraint=eastwest;whiteSpace=wrap;html=1;fontSize=20;" parent="Z6U1djoNNcDDPm0babk--11" vertex="1">
          <mxGeometry y="26" width="180" height="34" as="geometry" />
        </mxCell>
        <mxCell id="Z6U1djoNNcDDPm0babk--15" value="Transactional Records about Sales &amp;amp; Orders" style="text;html=1;align=center;verticalAlign=middle;whiteSpace=wrap;rounded=0;fontStyle=0;fontSize=16;" parent="1" vertex="1">
          <mxGeometry x="160" y="400" width="330" height="30" as="geometry" />
        </mxCell>
        <mxCell id="Z6U1djoNNcDDPm0babk--16" value="&lt;font style=&quot;font-size: 20px;&quot;&gt;crm_sales_details&lt;/font&gt;" style="swimlane;fontStyle=0;childLayout=stackLayout;horizontal=1;startSize=26;fillColor=#dae8fc;horizontalStack=0;resizeParent=1;resizeParentMax=0;resizeLast=0;collapsible=1;marginBottom=0;html=1;rounded=1;strokeColor=#6c8ebf;" parent="1" vertex="1">
          <mxGeometry x="220" y="440" width="180" height="94" as="geometry" />
        </mxCell>
        <mxCell id="Z6U1djoNNcDDPm0babk--17" value="prd_key" style="text;strokeColor=none;fillColor=none;align=left;verticalAlign=top;spacingLeft=4;spacingRight=4;overflow=hidden;rotatable=0;points=[[0,0.5],[1,0.5]];portConstraint=eastwest;whiteSpace=wrap;html=1;fontSize=20;" parent="Z6U1djoNNcDDPm0babk--16" vertex="1">
          <mxGeometry y="26" width="180" height="34" as="geometry" />
        </mxCell>
        <mxCell id="Z6U1djoNNcDDPm0babk--18" value="cst_id" style="text;strokeColor=none;fillColor=none;align=left;verticalAlign=top;spacingLeft=4;spacingRight=4;overflow=hidden;rotatable=0;points=[[0,0.5],[1,0.5]];portConstraint=eastwest;whiteSpace=wrap;html=1;fontSize=20;" parent="Z6U1djoNNcDDPm0babk--16" vertex="1">
          <mxGeometry y="60" width="180" height="34" as="geometry" />
        </mxCell>
        <mxCell id="Z6U1djoNNcDDPm0babk--19" style="edgeStyle=orthogonalEdgeStyle;rounded=0;orthogonalLoop=1;jettySize=auto;html=1;entryX=0;entryY=0.5;entryDx=0;entryDy=0;" parent="1" source="Z6U1djoNNcDDPm0babk--17" target="Z6U1djoNNcDDPm0babk--7" edge="1">
          <mxGeometry relative="1" as="geometry" />
        </mxCell>
        <mxCell id="Z6U1djoNNcDDPm0babk--20" style="edgeStyle=orthogonalEdgeStyle;rounded=0;orthogonalLoop=1;jettySize=auto;html=1;" parent="1" source="Z6U1djoNNcDDPm0babk--18" target="Z6U1djoNNcDDPm0babk--12" edge="1">
          <mxGeometry relative="1" as="geometry" />
        </mxCell>
        <mxCell id="Z6U1djoNNcDDPm0babk--21" value="Extra Customer Information (Birthdate)" style="text;html=1;align=center;verticalAlign=middle;whiteSpace=wrap;rounded=0;fontStyle=0;fontSize=16;" parent="1" vertex="1">
          <mxGeometry x="1230" y="510" width="300" height="20" as="geometry" />
        </mxCell>
        <mxCell id="Z6U1djoNNcDDPm0babk--22" value="&lt;font style=&quot;font-size: 20px;&quot;&gt;erp_CUST_AZ12&lt;/font&gt;" style="swimlane;fontStyle=0;childLayout=stackLayout;horizontal=1;startSize=26;fillColor=#d5e8d4;horizontalStack=0;resizeParent=1;resizeParentMax=0;resizeLast=0;collapsible=1;marginBottom=0;html=1;rounded=1;strokeColor=#82b366;" parent="1" vertex="1">
          <mxGeometry x="1280" y="540" width="180" height="60" as="geometry" />
        </mxCell>
        <mxCell id="Z6U1djoNNcDDPm0babk--23" value="CID" style="text;strokeColor=none;fillColor=none;align=left;verticalAlign=top;spacingLeft=4;spacingRight=4;overflow=hidden;rotatable=0;points=[[0,0.5],[1,0.5]];portConstraint=eastwest;whiteSpace=wrap;html=1;fontSize=20;" parent="Z6U1djoNNcDDPm0babk--22" vertex="1">
          <mxGeometry y="26" width="180" height="34" as="geometry" />
        </mxCell>
        <mxCell id="Z6U1djoNNcDDPm0babk--26" value="Location of Customers (Country)" style="text;html=1;align=center;verticalAlign=middle;whiteSpace=wrap;rounded=0;fontStyle=0;fontSize=16;" parent="1" vertex="1">
          <mxGeometry x="1250" y="680" width="260" as="geometry" />
        </mxCell>
        <mxCell id="Z6U1djoNNcDDPm0babk--27" value="&lt;font style=&quot;font-size: 20px;&quot;&gt;erp_LOC_A101&lt;/font&gt;" style="swimlane;fontStyle=0;childLayout=stackLayout;horizontal=1;startSize=26;fillColor=#d5e8d4;horizontalStack=0;resizeParent=1;resizeParentMax=0;resizeLast=0;collapsible=1;marginBottom=0;html=1;rounded=1;strokeColor=#82b366;" parent="1" vertex="1">
          <mxGeometry x="1280" y="710" width="180" height="60" as="geometry" />
        </mxCell>
        <mxCell id="Z6U1djoNNcDDPm0babk--28" value="CID" style="text;strokeColor=none;fillColor=none;align=left;verticalAlign=top;spacingLeft=4;spacingRight=4;overflow=hidden;rotatable=0;points=[[0,0.5],[1,0.5]];portConstraint=eastwest;whiteSpace=wrap;html=1;fontSize=20;" parent="Z6U1djoNNcDDPm0babk--27" vertex="1">
          <mxGeometry y="26" width="180" height="34" as="geometry" />
        </mxCell>
        <mxCell id="Z6U1djoNNcDDPm0babk--34" value="&lt;font style=&quot;font-size: 20px;&quot;&gt;erp_PX_CAT_G1V2&lt;/font&gt;" style="swimlane;fontStyle=0;childLayout=stackLayout;horizontal=1;startSize=26;fillColor=#d5e8d4;horizontalStack=0;resizeParent=1;resizeParentMax=0;resizeLast=0;collapsible=1;marginBottom=0;html=1;rounded=1;strokeColor=#82b366;" parent="1" vertex="1">
          <mxGeometry x="1280" y="315" width="190" height="60" as="geometry" />
        </mxCell>
        <mxCell id="Z6U1djoNNcDDPm0babk--35" value="ID" style="text;strokeColor=none;fillColor=none;align=left;verticalAlign=top;spacingLeft=4;spacingRight=4;overflow=hidden;rotatable=0;points=[[0,0.5],[1,0.5]];portConstraint=eastwest;whiteSpace=wrap;html=1;fontSize=20;" parent="Z6U1djoNNcDDPm0babk--34" vertex="1">
          <mxGeometry y="26" width="190" height="34" as="geometry" />
        </mxCell>
        <mxCell id="Z6U1djoNNcDDPm0babk--37" value="Product Categories" style="text;html=1;align=center;verticalAlign=middle;whiteSpace=wrap;rounded=0;fontStyle=0;fontSize=16;" parent="1" vertex="1">
          <mxGeometry x="1225" y="280" width="300" height="20" as="geometry" />
        </mxCell>
        <mxCell id="Z6U1djoNNcDDPm0babk--38" value="&lt;font style=&quot;font-size: 30px;&quot;&gt;Integration Model&lt;/font&gt;" style="text;html=1;align=center;verticalAlign=middle;resizable=0;points=[];autosize=1;strokeColor=none;fillColor=none;fontStyle=1" parent="1" vertex="1">
          <mxGeometry x="195" y="60" width="260" height="50" as="geometry" />
        </mxCell>
        <mxCell id="Z6U1djoNNcDDPm0babk--41" value="" style="rounded=1;whiteSpace=wrap;html=1;fillColor=none;dashed=1;" parent="1" vertex="1">
          <mxGeometry x="135" y="250" width="750" height="545" as="geometry" />
        </mxCell>
        <mxCell id="Z6U1djoNNcDDPm0babk--42" value="&lt;b&gt;&lt;font style=&quot;font-size: 35px;&quot;&gt;CRM&amp;nbsp;&lt;/font&gt;&lt;/b&gt;" style="rounded=1;whiteSpace=wrap;html=1;strokeColor=#6c8ebf;fillColor=#dae8fc;" parent="1" vertex="1">
          <mxGeometry x="450" y="230" width="120" height="45" as="geometry" />
        </mxCell>
        <mxCell id="Z6U1djoNNcDDPm0babk--43" value="" style="rounded=1;whiteSpace=wrap;html=1;fillColor=none;dashed=1;" parent="1" vertex="1">
          <mxGeometry x="1010" y="240" width="660" height="550" as="geometry" />
        </mxCell>
        <mxCell id="Z6U1djoNNcDDPm0babk--45" value="&lt;b&gt;&lt;font style=&quot;font-size: 35px;&quot;&gt;ERP&lt;/font&gt;&lt;/b&gt;" style="rounded=1;whiteSpace=wrap;html=1;strokeColor=#82b366;fillColor=#d5e8d4;" parent="1" vertex="1">
          <mxGeometry x="1320" y="220" width="120" height="40" as="geometry" />
        </mxCell>
        <mxCell id="HgyJIwbSkLL7c-inZIB4-2" style="edgeStyle=orthogonalEdgeStyle;rounded=0;orthogonalLoop=1;jettySize=auto;html=1;entryX=1;entryY=0.5;entryDx=0;entryDy=0;" edge="1" parent="1" source="Z6U1djoNNcDDPm0babk--35" target="Z6U1djoNNcDDPm0babk--12">
          <mxGeometry relative="1" as="geometry" />
        </mxCell>
        <mxCell id="HgyJIwbSkLL7c-inZIB4-3" style="edgeStyle=orthogonalEdgeStyle;rounded=0;orthogonalLoop=1;jettySize=auto;html=1;entryX=1;entryY=0.5;entryDx=0;entryDy=0;" edge="1" parent="1" source="Z6U1djoNNcDDPm0babk--23" target="HgyJIwbSkLL7c-inZIB4-1">
          <mxGeometry relative="1" as="geometry" />
        </mxCell>
        <mxCell id="HgyJIwbSkLL7c-inZIB4-4" style="edgeStyle=orthogonalEdgeStyle;rounded=0;orthogonalLoop=1;jettySize=auto;html=1;entryX=1;entryY=0.5;entryDx=0;entryDy=0;" edge="1" parent="1" source="Z6U1djoNNcDDPm0babk--28" target="HgyJIwbSkLL7c-inZIB4-1">
          <mxGeometry relative="1" as="geometry" />
        </mxCell>
      </root>
    </mxGraphModel>
  </diagram>
</mxfile>
